<svg width="512" height="73" viewBox="0 0 512 73" fill="none" xmlns="http://www.w3.org/2000/svg">
<path d="M511.692 72.4145L0.0683594 72.8959L0.000231303 0.481346L511.624 6.8991e-06L511.692 72.4145Z" fill="#47008D"/>
<g filter="url(#filter0_d_498_4)">
<path d="M143.003 61H136.883V19H164.543V61H158.363V43.12H143.003V61ZM143.003 25.18V36.94H158.363V25.18H143.003ZM191.174 19H197.354V61H169.754V19H175.874V54.82H191.174V19ZM228.949 42.34H202.129V19H235.129V25.12H208.249V36.22H235.129V61H202.129V54.88H228.949V42.34ZM266.426 25.18H255.506V61H249.386V25.18H238.466V19H266.426V25.18ZM277.948 61H271.648V19H283.228C287.368 19 291.088 20.68 294.088 23.5C297.028 26.32 298.588 30.28 298.588 34.3C298.588 38.44 297.028 42.28 294.088 45.22C292.588 46.72 290.788 47.8 288.868 48.58L298.948 61H290.788L281.668 49.66H277.948V61ZM277.948 25.3V43.36H283.228C288.208 43.36 292.348 39.28 292.348 34.3C292.348 29.26 288.208 25.3 283.228 25.3H277.948ZM308.589 61H302.469V19H330.129V61H323.949V43.12H308.589V61ZM308.589 25.18V36.94H323.949V25.18H308.589ZM341.64 55.12H355.92V61H335.34V19H341.64V55.12ZM371.034 25.18V55.12H376.494V61H359.514V55.12H365.034V25.18H359.514V19H376.494V25.18H371.034ZM387.983 61H381.863V19H409.523V61H403.343V43.12H387.983V61ZM387.983 25.18V36.94H403.343V25.18H387.983Z" fill="#E0B9FF"/>
</g>
<defs>
<filter id="filter0_d_498_4" x="132.883" y="19" width="280.64" height="50" filterUnits="userSpaceOnUse" color-interpolation-filters="sRGB">
<feFlood flood-opacity="0" result="BackgroundImageFix"/>
<feColorMatrix in="SourceAlpha" type="matrix" values="0 0 0 0 0 0 0 0 0 0 0 0 0 0 0 0 0 0 127 0" result="hardAlpha"/>
<feOffset dy="4"/>
<feGaussianBlur stdDeviation="2"/>
<feComposite in2="hardAlpha" operator="out"/>
<feColorMatrix type="matrix" values="0 0 0 0 0 0 0 0 0 0 0 0 0 0 0 0 0 0 0.25 0"/>
<feBlend mode="normal" in2="BackgroundImageFix" result="effect1_dropShadow_498_4"/>
<feBlend mode="normal" in="SourceGraphic" in2="effect1_dropShadow_498_4" result="shape"/>
</filter>
</defs>
</svg>
