<svg width="858" height="209" viewBox="0 0 858 209" fill="none" xmlns="http://www.w3.org/2000/svg">
<path d="M2.4 23.08V5H27.52V23.08H17.04V33H12.92V23.08H2.4ZM12.92 9.12H6.56V18.96H12.92V9.12ZM23.4 18.96V9.12H17.04V18.96H23.4ZM59.0497 24.88C56.7697 30.2 51.4897 33.92 45.3297 33.92C37.0497 33.92 30.3697 27.24 30.3697 18.96C30.3697 10.68 37.0497 4 45.3297 4C53.6097 4 60.2897 10.68 60.2897 18.96C60.2897 19.44 60.2497 19.92 60.2097 20.36H34.6897C34.9697 22.72 36.0497 24.88 37.7297 26.56C39.7697 28.6 42.4497 29.72 45.3297 29.72C48.2097 29.72 50.8897 28.6 52.9297 26.56C53.5297 25.92 54.0897 25.24 54.5297 24.52L59.0497 24.88ZM45.3297 8.2C42.4497 8.2 39.7697 9.32 37.7297 11.36C36.3697 12.72 35.4097 14.44 34.9297 16.24H55.7297C55.2497 14.44 54.2897 12.72 52.9297 11.36C50.8897 9.32 48.2097 8.2 45.3297 8.2ZM65.1791 28.8V5H83.7791V28.8H89.0191V32.92H59.9391V28.8H65.1791ZM69.2991 9.08V28.8H79.6991V9.08H69.2991ZM118.962 18.96C118.962 27.2 112.242 33.92 104.002 33.92C95.7216 33.92 89.0416 27.2 89.0416 18.96C89.0416 10.68 95.7216 4 104.002 4C112.242 4 118.962 10.68 118.962 18.96ZM93.2416 18.96C93.2416 21.8 94.3616 24.52 96.4016 26.52C98.4416 28.56 101.122 29.68 104.002 29.68C106.882 29.68 109.562 28.56 111.602 26.52C113.642 24.52 114.722 21.8 114.722 18.96C114.722 16.08 113.642 13.36 111.602 11.36C109.562 9.32 106.882 8.2 104.002 8.2C101.122 8.2 98.4416 9.32 96.4016 11.36C94.3616 13.36 93.2416 16.08 93.2416 18.96ZM137.882 9.12H130.602V33H126.522V9.12H119.242V5H137.882V9.12ZM167.79 18.96C167.79 27.2 161.07 33.92 152.83 33.92C144.55 33.92 137.87 27.2 137.87 18.96C137.87 10.68 144.55 4 152.83 4C161.07 4 167.79 10.68 167.79 18.96ZM142.07 18.96C142.07 21.8 143.19 24.52 145.23 26.52C147.27 28.56 149.95 29.68 152.83 29.68C155.71 29.68 158.39 28.56 160.43 26.52C162.47 24.52 163.55 21.8 163.55 18.96C163.55 16.08 162.47 13.36 160.43 11.36C158.39 9.32 155.71 8.2 152.83 8.2C149.95 8.2 147.27 9.32 145.23 11.36C143.19 13.36 142.07 16.08 142.07 18.96ZM194.473 32.92H170.633V5H186.593V16H194.433V16.28H194.473V32.92ZM182.473 16V9.12H174.753V16H182.473ZM174.753 28.8H190.353V20.08H174.753V28.8ZM202.123 33H198.043V5H216.483V33H212.363V21.08H202.123V33ZM202.123 9.12V16.96H212.363V9.12H202.123ZM265.042 22.88C263.322 29.2 257.522 33.88 250.602 33.88C242.362 33.88 235.682 27.2 235.682 18.96C235.682 10.72 242.362 4.04 250.602 4.04C257.602 4.04 263.482 8.84 265.122 15.32H260.722C260.162 13.84 259.322 12.52 258.202 11.36C256.162 9.36 253.482 8.24 250.602 8.24C247.762 8.24 245.042 9.36 243.042 11.36C241.002 13.4 239.882 16.08 239.882 18.96C239.882 21.84 241.002 24.52 243.042 26.56C245.042 28.56 247.762 29.68 250.602 29.68C253.482 29.68 256.162 28.56 258.202 26.56C259.282 25.48 260.082 24.24 260.602 22.88H265.042ZM297.516 18.96C297.516 27.2 290.796 33.92 282.556 33.92C274.276 33.92 267.596 27.2 267.596 18.96C267.596 10.68 274.276 4 282.556 4C290.796 4 297.516 10.68 297.516 18.96ZM271.796 18.96C271.796 21.8 272.916 24.52 274.956 26.52C276.996 28.56 279.676 29.68 282.556 29.68C285.436 29.68 288.116 28.56 290.156 26.52C292.196 24.52 293.276 21.8 293.276 18.96C293.276 16.08 292.196 13.36 290.156 11.36C288.116 9.32 285.436 8.2 282.556 8.2C279.676 8.2 276.996 9.32 274.956 11.36C272.916 13.36 271.796 16.08 271.796 18.96ZM299.939 23.08V5H325.059V23.08H314.579V33H310.459V23.08H299.939ZM310.459 9.12H304.099V18.96H310.459V9.12ZM320.939 18.96V9.12H314.579V18.96H320.939ZM346.299 22.76C346.299 25.48 345.219 28.04 343.299 30C341.379 31.92 338.779 33 336.059 33H328.259V5H332.499V12.48H336.059C338.779 12.48 341.379 13.56 343.299 15.48C345.219 17.44 346.299 20 346.299 22.76ZM336.059 28.76C339.379 28.76 342.099 26.08 342.099 22.76C342.099 19.44 339.379 16.72 336.059 16.72H332.499V28.76H336.059ZM359.047 25.44L352.967 33H347.527L354.247 24.72C352.967 24.2 351.767 23.48 350.767 22.48C348.807 20.52 347.767 17.96 347.767 15.2C347.767 12.52 348.807 9.88 350.767 8C352.687 6.04 355.247 5 358.007 5H365.727V33H361.527V25.44H359.047ZM358.007 9.2C354.687 9.2 351.927 11.84 351.927 15.2C351.927 18.52 354.687 21.24 358.007 21.24H361.527V9.2H358.007ZM388.568 33H384.488V5H402.928V33H398.808V21.08H388.568V33ZM388.568 9.12V16.96H398.808V9.12H388.568ZM409.952 33H405.472L410.832 5H424.712V33H420.592V9.12H414.512L409.952 33ZM456.237 24.88C453.957 30.2 448.677 33.92 442.517 33.92C434.237 33.92 427.557 27.24 427.557 18.96C427.557 10.68 434.237 4 442.517 4C450.797 4 457.477 10.68 457.477 18.96C457.477 19.44 457.437 19.92 457.397 20.36H431.877C432.157 22.72 433.237 24.88 434.917 26.56C436.957 28.6 439.637 29.72 442.517 29.72C445.397 29.72 448.077 28.6 450.117 26.56C450.717 25.92 451.277 25.24 451.717 24.52L456.237 24.88ZM442.517 8.2C439.637 8.2 436.957 9.32 434.917 11.36C433.557 12.72 432.597 14.44 432.117 16.24H452.917C452.437 14.44 451.477 12.72 450.117 11.36C448.077 9.32 445.397 8.2 442.517 8.2ZM486.37 4.64V9.32L465.25 18.96L486.37 28.56V33.28L464.45 23.36V33H460.33V5H464.45V14.6L486.37 4.64ZM516.175 22.88C514.455 29.2 508.655 33.88 501.735 33.88C493.495 33.88 486.815 27.2 486.815 18.96C486.815 10.72 493.495 4.04 501.735 4.04C508.735 4.04 514.615 8.84 516.255 15.32H511.855C511.295 13.84 510.455 12.52 509.335 11.36C507.295 9.36 504.615 8.24 501.735 8.24C498.895 8.24 496.175 9.36 494.175 11.36C492.135 13.4 491.015 16.08 491.015 18.96C491.015 21.84 492.135 24.52 494.175 26.56C496.175 28.56 498.895 29.68 501.735 29.68C504.615 29.68 507.295 28.56 509.335 26.56C510.415 25.48 511.215 24.24 511.735 22.88H516.175ZM547.409 24.88C545.129 30.2 539.849 33.92 533.689 33.92C525.409 33.92 518.729 27.24 518.729 18.96C518.729 10.68 525.409 4 533.689 4C541.969 4 548.649 10.68 548.649 18.96C548.649 19.44 548.609 19.92 548.569 20.36H523.049C523.329 22.72 524.409 24.88 526.089 26.56C528.129 28.6 530.809 29.72 533.689 29.72C536.569 29.72 539.249 28.6 541.289 26.56C541.889 25.92 542.449 25.24 542.889 24.52L547.409 24.88ZM533.689 8.2C530.809 8.2 528.129 9.32 526.089 11.36C524.729 12.72 523.769 14.44 523.289 16.24H544.089C543.609 14.44 542.649 12.72 541.289 11.36C539.249 9.32 536.569 8.2 533.689 8.2ZM579.792 24.88C577.512 30.2 572.232 33.92 566.072 33.92C557.792 33.92 551.112 27.24 551.112 18.96C551.112 10.68 557.792 4 566.072 4C574.352 4 581.032 10.68 581.032 18.96C581.032 19.44 580.992 19.92 580.952 20.36H555.432C555.712 22.72 556.792 24.88 558.472 26.56C560.512 28.6 563.192 29.72 566.072 29.72C568.952 29.72 571.632 28.6 573.672 26.56C574.272 25.92 574.832 25.24 575.272 24.52L579.792 24.88ZM566.072 8.2C563.192 8.2 560.512 9.32 558.472 11.36C557.112 12.72 556.152 14.44 555.672 16.24H576.472C575.992 14.44 575.032 12.72 573.672 11.36C571.632 9.32 568.952 8.2 566.072 8.2ZM607.715 32.92H583.875V5H599.835V16H607.675V16.28H607.715V32.92ZM595.715 16V9.12H587.995V16H595.715ZM587.995 28.8H603.595V20.08H587.995V28.8ZM615.265 20.12V33H611.145V5H615.265V16H631.705V5H635.825V33H631.705V20.12H615.265ZM643.646 33H639.566V5H658.006V33H653.886V21.08H643.646V33ZM643.646 9.12V16.96H653.886V9.12H643.646Z" fill="#F7C9FF"/>
<path d="M2.4 112.422V84.4219H16.12V88.1019H6.6V112.422H2.4ZM26.6434 84.4219C29.4034 84.4219 32.0034 85.5019 33.8834 87.4219C35.8034 89.3019 36.8834 91.9019 36.8834 94.6619C36.8834 97.3819 35.8034 99.9019 33.8834 101.862C32.0034 103.822 29.4034 104.822 26.6434 104.822H23.1234V112.342H18.9234V84.4219H26.6434ZM26.6434 100.622C29.9634 100.622 32.7234 97.9819 32.7234 94.6619C32.7234 91.3419 29.9634 88.5819 26.6434 88.5819H23.1234V100.622H26.6434ZM39.3141 102.502V84.4219H43.4341V98.4219H54.0341V84.4219H58.1541V102.502H50.7941V112.422H46.6741V102.502H39.3141ZM65.8347 112.422H61.7147V84.4219H80.1147V112.422H76.0347V88.5419H65.8347V112.422ZM87.7097 112.422H83.5897V84.4219H101.99V112.422H97.9097V88.5419H87.7097V112.422ZM109.545 112.422H105.465V84.4219H123.905V112.422H119.785V100.502H109.545V112.422ZM109.545 88.5419V96.3819H119.785V88.5419H109.545ZM132.381 92.8219C132.381 94.0219 131.421 95.0619 130.141 95.0619C128.901 95.0619 127.861 94.0219 127.861 92.8219C127.861 91.5419 128.901 90.5019 130.141 90.5019C131.421 90.5019 132.381 91.5419 132.381 92.8219ZM132.381 105.142C132.381 106.342 131.421 107.382 130.141 107.382C128.901 107.382 127.861 106.342 127.861 105.142C127.861 103.862 128.901 102.822 130.141 102.822C131.421 102.822 132.381 103.862 132.381 105.142ZM153.017 88.5819V95.3019H169.297V112.422H148.897V84.4219H169.297V88.5819H153.017ZM153.017 99.4219V108.262H165.137V99.4219H153.017ZM177.358 112.422H173.238V84.4219H191.638V112.422H187.558V88.5419H177.358V112.422ZM195.213 112.422V96.8219H215.173V88.5019H195.213V84.4219H219.693V100.902H199.773V108.342H219.693V112.422H195.213ZM236.778 84.4219H240.898V112.422H236.778V102.502H223.298V84.4219H227.418V98.4219H236.778V84.4219ZM249.32 108.222V84.4219H267.92V108.222H273.16V112.342H244.08V108.222H249.32ZM253.44 88.5019V108.222H263.84V88.5019H253.44ZM290.164 100.462H276.764V96.3419H290.164V88.5419H276.764V84.4219H294.284V112.422H276.764V108.302H290.164V100.462ZM324.313 98.3819C324.313 106.622 317.593 113.342 309.353 113.342C301.073 113.342 294.393 106.622 294.393 98.3819C294.393 90.1019 301.073 83.4219 309.353 83.4219C317.593 83.4219 324.313 90.1019 324.313 98.3819ZM298.593 98.3819C298.593 101.222 299.713 103.942 301.753 105.942C303.793 107.982 306.473 109.102 309.353 109.102C312.233 109.102 314.913 107.982 316.953 105.942C318.993 103.942 320.073 101.222 320.073 98.3819C320.073 95.5019 318.993 92.7819 316.953 90.7819C314.913 88.7419 312.233 87.6219 309.353 87.6219C306.473 87.6219 303.793 88.7419 301.753 90.7819C299.713 92.7819 298.593 95.5019 298.593 98.3819ZM355.485 98.3819C355.485 106.622 348.765 113.342 340.525 113.342C332.245 113.342 325.565 106.622 325.565 98.3819C325.565 90.1019 332.245 83.4219 340.525 83.4219C348.765 83.4219 355.485 90.1019 355.485 98.3819ZM329.765 98.3819C329.765 101.222 330.885 103.942 332.925 105.942C334.965 107.982 337.645 109.102 340.525 109.102C343.405 109.102 346.085 107.982 348.125 105.942C350.165 103.942 351.245 101.222 351.245 98.3819C351.245 95.5019 350.165 92.7819 348.125 90.7819C346.085 88.7419 343.405 87.6219 340.525 87.6219C337.645 87.6219 334.965 88.7419 332.925 90.7819C330.885 92.7819 329.765 95.5019 329.765 98.3819ZM376.657 100.902H356.697V84.4219H381.177V112.422H356.697V108.342H376.657V100.902ZM376.657 96.8219V88.5019H361.257V96.8219H376.657Z" fill="#F7C9FF"/>
<path d="M28.44 163.484V168.164L7.32 177.804L28.44 187.404V192.124L6.52 182.204V191.844H2.4V163.844H6.52V173.444L28.44 163.484ZM31.2281 181.924V163.844H35.3481V177.844H45.9481V163.844H50.0681V181.924H42.7081V191.844H38.5881V181.924H31.2281ZM60.9794 163.844C63.7394 163.844 66.3394 164.924 68.2194 166.844C70.1394 168.724 71.2194 171.324 71.2194 174.084C71.2194 176.804 70.1394 179.324 68.2194 181.284C66.3394 183.244 63.7394 184.244 60.9794 184.244H57.4594V191.764H53.2594V163.844H60.9794ZM60.9794 180.044C64.2994 180.044 67.0594 177.404 67.0594 174.084C67.0594 170.764 64.2994 168.004 60.9794 168.004H57.4594V180.044H60.9794ZM78.0603 191.844H73.9803V163.844H92.4203V191.844H88.3003V179.924H78.0603V191.844ZM78.0603 167.964V175.804H88.3003V167.964H78.0603ZM114.053 167.964H106.773V191.844H102.693V167.964H95.4134V163.844H114.053V167.964ZM143.962 177.804C143.962 186.044 137.242 192.764 129.002 192.764C120.722 192.764 114.042 186.044 114.042 177.804C114.042 169.524 120.722 162.844 129.002 162.844C137.242 162.844 143.962 169.524 143.962 177.804ZM118.242 177.804C118.242 180.644 119.362 183.364 121.402 185.364C123.442 187.404 126.122 188.524 129.002 188.524C131.882 188.524 134.562 187.404 136.602 185.364C138.642 183.364 139.722 180.644 139.722 177.804C139.722 174.924 138.642 172.204 136.602 170.204C134.562 168.164 131.882 167.044 129.002 167.044C126.122 167.044 123.442 168.164 121.402 170.204C119.362 172.204 118.242 174.924 118.242 177.804ZM154.534 163.844C157.294 163.844 159.894 164.924 161.774 166.844C163.694 168.724 164.774 171.324 164.774 174.084C164.774 176.804 163.694 179.324 161.774 181.284C159.894 183.244 157.294 184.244 154.534 184.244H151.014V191.764H146.814V163.844H154.534ZM154.534 180.044C157.854 180.044 160.614 177.404 160.614 174.084C160.614 170.764 157.854 168.004 154.534 168.004H151.014V180.044H154.534ZM170.506 172.244C170.506 173.444 169.546 174.484 168.266 174.484C167.026 174.484 165.986 173.444 165.986 172.244C165.986 170.964 167.026 169.924 168.266 169.924C169.546 169.924 170.506 170.964 170.506 172.244ZM170.506 184.564C170.506 185.764 169.546 186.804 168.266 186.804C167.026 186.804 165.986 185.764 165.986 184.564C165.986 183.284 167.026 182.244 168.266 182.244C169.546 182.244 170.506 183.284 170.506 184.564ZM190.422 178.964V191.844H186.302V163.844H190.422V174.844H206.862V163.844H210.982V191.844H206.862V178.964H190.422ZM218.803 191.844H214.723V163.844H233.163V191.844H229.043V179.924H218.803V191.844ZM218.803 167.964V175.804H229.043V167.964H218.803ZM237.127 163.844H241.247V187.724H247.287V163.844H251.407V187.724H257.487V163.844H261.607V187.724H266.927V196.404H262.807V191.844H237.127V163.844ZM271.477 157.484C271.917 159.004 270.797 160.484 269.197 160.484H269.077C267.997 160.484 267.077 159.804 266.797 158.804C266.357 157.284 267.477 155.804 269.077 155.804H269.197C270.277 155.804 271.197 156.484 271.477 157.484ZM280.957 155.804C282.517 155.804 283.637 157.284 283.197 158.804C282.917 159.804 281.997 160.484 280.957 160.484H280.797C279.237 160.484 278.117 159.004 278.557 157.484C278.837 156.484 279.757 155.804 280.797 155.804H280.957ZM292.677 155.804C294.277 155.804 295.397 157.284 294.957 158.804C294.677 159.804 293.717 160.484 292.677 160.484H292.517C290.957 160.484 289.837 159.004 290.277 157.484C290.557 156.484 291.477 155.804 292.517 155.804H292.677ZM294.637 183.724C292.317 189.044 287.037 192.764 280.877 192.764C272.637 192.764 265.917 186.084 265.917 177.804C265.917 169.524 272.717 162.844 280.877 162.844C289.237 162.844 295.837 169.524 295.837 177.804C295.837 178.284 295.837 178.764 295.797 179.204H270.237C270.557 181.564 271.597 183.724 273.277 185.404C275.317 187.444 278.037 188.564 280.877 188.564C283.757 188.564 286.477 187.444 288.477 185.404C289.117 184.764 289.637 184.084 290.077 183.364L294.637 183.724ZM280.877 167.044C278.037 167.044 275.317 168.164 273.277 170.204C271.917 171.564 270.957 173.284 270.477 175.084H291.277C290.837 173.284 289.877 171.564 288.477 170.204C286.477 168.164 283.757 167.044 280.877 167.044ZM324.729 163.484V168.164L303.609 177.804L324.729 187.404V192.124L302.809 182.204V191.844H298.689V163.844H302.809V173.444L324.729 163.484ZM327.908 163.844H332.188L332.148 188.124H335.188L337.948 163.844H349.108V191.844H344.708V167.604H341.708L339.068 191.844H327.908V163.844ZM356.633 178.964V191.844H352.513V163.844H356.633V174.844H373.073V163.844H377.193V191.844H373.073V178.964H356.633ZM398.898 178.964V191.844H394.778V163.844H398.898V174.844H415.338V163.844H419.458V191.844H415.338V178.964H398.898ZM422.83 163.844H427.11L427.07 188.124H430.11L432.87 163.844H444.03V191.844H439.63V167.604H436.63L433.99 191.844H422.83V163.844ZM473.674 163.484V168.164L452.554 177.804L473.674 187.404V192.124L451.754 182.204V191.844H447.634V163.844H451.754V173.444L473.674 163.484ZM476.853 163.844H481.133L481.093 188.124H484.133L486.893 163.844H498.053V191.844H493.653V167.604H490.653L488.013 191.844H476.853V163.844ZM519.366 167.964H512.086V191.844H508.006V167.964H500.726V163.844H519.366V167.964ZM526.537 191.844H522.457V163.844H540.897V191.844H536.777V179.924H526.537V191.844ZM526.537 167.964V175.804H536.777V167.964H526.537Z" fill="#F7C9FF"/>
</svg>
